<svg width="77" height="24" viewBox="0 0 77 24" fill="none" xmlns="http://www.w3.org/2000/svg" role="img" aria-label="100x.bot">
<g clip-path="url(#clip0_34_543)">
<path d="M0 5.46282L3.17366 0H5.72886C8.49733 0 10.7416 2.2091 10.7416 4.93416V23.966H4.63843V7.57747C4.63843 6.40958 3.67659 5.46282 2.4901 5.46282H0Z" fill="#3870FF"/>
<path d="M36.5215 11.983C36.5215 18.601 31.0711 23.966 24.3477 23.966C17.6243 23.966 12.1738 18.601 12.1738 11.983C12.1738 5.36496 17.6243 0 24.3477 0C31.0711 0 36.5215 5.36496 36.5215 11.983ZM18.2608 11.983C18.2608 15.292 20.986 17.9744 24.3477 17.9744C27.7094 17.9744 30.4345 15.292 30.4345 11.983C30.4345 8.67397 27.7094 5.99148 24.3477 5.99148C20.986 5.99148 18.2608 8.67397 18.2608 11.983Z" fill="#3870FF"/>
<path d="M51.918 23.966C56.5626 23.966 59.8847 22.8205 62.1055 19.9129L76.4446 0H69.1304L58.2158 14.7017C56.2659 17.379 54.8679 17.9744 51.918 17.9744V23.966Z" fill="#3870FF"/>
<path d="M51.918 5.99148C54.8345 5.99148 56.026 6.52014 59.0319 9.25156L62.3384 4.93416C58.7313 1.40976 56.7094 0 51.918 0V5.99148Z" fill="#3870FF"/>
<path d="M68.6716 23.9661H75.1842L69.0723 14.5382L65.5654 19.2081L68.6716 23.9661Z" fill="#3870FF"/>
<path d="M50.1279 23.966C46.8992 23.966 43.8027 22.7035 41.5197 20.4563C39.2367 18.209 37.9541 15.161 37.9541 11.983C37.9541 8.80489 39.2367 5.75697 41.5197 3.50974C43.8027 1.26249 46.8992 -3.78984e-08 50.1279 0V5.99148C48.5135 5.99148 46.9653 6.62273 45.8238 7.74636C44.6823 8.86997 44.041 10.394 44.041 11.983C44.041 13.572 44.6823 15.096 45.8238 16.2196C46.9653 17.3432 48.5135 17.9744 50.1279 17.9744V23.966Z" fill="#3870FF"/>
</g>
<defs>
<clipPath id="clip0_34_543">
<rect width="76.4444" height="24" fill="white"/>
</clipPath>
</defs>
</svg>
