<svg xmlns="http://www.w3.org/2000/svg" xml:space="preserve" width="800" height="800" version="1.0"><g fill-rule="evenodd" clip-rule="evenodd"><path fill="#24BFDC" d="M279.533 318.742c3.022.027 6.044.045 9.066.084 6.297.083 10.289 3.559 11.145 9.804.204 1.487.156 3.014.156 4.523.007 56.615-.022 113.231.047 169.846.007 5.86-.363 11.324-6.062 14.734-.179.107-.311.511-.257.723.042.164.409.246.631.364H125.782c.729-1.591-.885-1.438-1.512-1.933-3.004-2.373-4.919-5.237-4.514-9.255.287-.7.248-1.365-.226-1.979v-10.818l.649-.938c7.101-.049 14.203-.175 21.303-.107 2.366.022 3.424-.523 3.357-3.169-.188-7.373-.113-14.752-.142-22.129 7.014.02 14.031-.079 21.041.111 3.13.085 4.048-1.135 3.971-4.11-.183-7.009-.114-14.025-.147-21.039l.291-24.548c7.13-.028 14.26-.12 21.389-.047 2.569.027 3.795-.822 3.756-3.533q-.134-9.257 0-18.512c.04-2.749-1.267-3.531-3.797-3.49-6.033.099-12.069.119-18.1-.009-2.646-.056-3.634.863-3.598 3.562.097 7.127-.036 14.258-.077 21.387l-24.643.034-24.862-.134.042-24.239c6.999.005 13.998-.073 20.995.057 2.757.051 3.97-.756 3.878-3.729a278 278 0 0 1 .004-17.698c.101-3.049-.903-4.094-3.986-4.039-7.129.127-14.264-.069-21.397-.134l.037-40.273c.661-.771.732-1.647.464-2.585l-.011.032c2.827-5.163 7.164-6.798 13.006-6.764 33.996.195 67.993.109 101.99.089 14.864-.011 29.727-.091 44.59-.139M256.018 443.67c4.161 0 7.595-.054 11.026.023 1.681.037 2.494-.427 2.473-2.297-.076-6.864-.067-13.732-.005-20.598.016-1.76-.644-2.457-2.394-2.445-6.729.042-13.458.07-20.186-.017-2.245-.029-2.823 1.02-2.773 3.02.082 3.294-.068 6.594.041 9.887.131 3.956-1.689 9.078.696 11.561 2.589 2.693 7.806.398 11.122.866m-74.733-74.945c.925 0 1.2.013 1.474-.002 3.816-.201 8.753 1.596 11.162-.676 2.63-2.479.886-7.526.872-11.436-.015-4.198 1.911-9.808-.878-12.198-2.409-2.065-7.851-.666-11.953-.664-3.953.002-9.212-1.33-11.517.668-2.663 2.311-.827 7.718-.833 11.767-.006 4.057-1.791 9.298.801 11.854 2.394 2.364 7.577.422 10.872.687m13.15 86.603c0 3.692.133 6.727-.04 9.741-.148 2.569.54 3.724 3.388 3.639 6.183-.184 12.377-.151 18.563-.01 2.511.057 3.395-.785 3.331-3.304-.139-5.498-.038-11.001-.04-16.502-.002-5.431-.005-5.433-5.235-5.438-2.476-.003-4.958-.126-7.424.027-4.057.254-9.278-1.806-11.852.936-2.358 2.512-.417 7.623-.691 10.911"/><path fill="#0F5AA4" d="M365.285 518.82c.096-.229.307-.638.271-.66-6.189-3.973-5.983-10.131-5.975-16.451.08-56.543.045-113.084.048-169.627 0-9.905 3.469-13.493 13.325-13.584 8.391-.078 16.785-.1 25.175.006 9.605.122 13.056 3.734 13.06 13.407.007 19.123-.011 38.246.028 57.368.003 1.417-.502 2.974.62 4.358 1.651-.78 2.296-2.365 3.231-3.637 16.055-21.824 32.147-43.619 48.044-65.557 2.976-4.107 6.626-5.958 11.494-5.955 9.905.007 19.812-.029 29.716.012 4.784.02 9.072 1.166 11.259 6.028 2.123 4.722.589 8.68-2.399 12.582-18.066 23.583-36.023 47.25-54.03 70.877-5.259 6.901-5.301 10.084-.002 16.867q29.213 37.394 58.455 74.762c5.924 7.569 5.516 11.709-1.855 18.174-.2.175-.11.679-.156 1.029H468.52c-.52-2.86-3.364-3.807-4.894-5.905-16.195-22.228-32.585-44.313-48.967-66.403-.824-1.111-1.234-2.792-3.468-3.073v4.576c0 18.432-.078 36.863.047 55.295.039 5.697-.188 11.068-5.681 14.516-.103.064.123.651.195.995z"/><path fill="#24BEDB" d="M650.209 518.82c-3.948-4.927-2.861-10.757-2.886-16.364-.047-11.148.11-22.299-.08-33.444-.067-4.001 1.347-6.66 4.582-8.982 22.117-15.878 44.16-31.857 66.17-47.883 5.23-3.809 9.934-8.233 14.407-12.939 8.549-8.994 8.036-19.972 3.115-29.812-4.364-8.727-14.258-12.896-25.395-11.242-12.438 1.847-18.372 7.744-20.973 20.839-1.103 5.551-2.651 6.849-8.343 6.858q-15.278.029-30.555-.006c-1.533-.003-3.423.594-2.946-2.345 2.274-14.003 4.706-27.853 12.791-40.086 10.368-15.692 24.977-23.997 43.371-25.954 15.007-1.596 29.704-.366 43.417 6.592 18.818 9.549 28.197 25.806 32.11 45.845.204 1.048-.054 2.225.833 3.088.097.095.298.246.326.222.198-.167.364-.372.541-.565v20.646c-.268-.178-.385-.827-.875-.297-.177.19-.382.426-.419.665-1.035 6.697-3.06 13.058-6.396 18.979-6.964 12.361-17.305 21.551-28.354 30.039-12.088 9.284-24.862 17.598-37.445 26.178-2.93 1.997-4.627 4.35-3.317 7.929 1.234 3.372 4.034 4.079 7.313 4.07 18.406-.046 36.813-.004 55.219-.033 5.174-.009 10.606-.979 14.021 4.467l.253-.325v29.73c-2.264.447-3.226 1.935-3.304 4.13z"/><path fill="#23BDDA" d="M567.622 518.82c1.116-1.121-.222-1.286-.712-1.582-4.355-2.631-5.806-6.575-5.799-11.502.059-43.895.034-87.79.034-131.684 0-10.593-3.775-14.416-14.292-14.482-7.994-.05-12.26-4.162-12.387-12.108-.091-5.64-.111-11.285.01-16.924.161-7.497 4.478-11.702 11.902-11.712 16.512-.023 33.024-.029 49.536.002 7.354.014 11.752 4.372 11.756 11.839.033 58.617-.002 117.235.054 175.853.005 5.252-2.409 8.823-6.65 11.479-.096.06-.19.314-.15.359.156.18.368.312.559.462z"/><path fill="#0F5BA5" d="M119.948 325.554c.295-5.368 3.614-7.986 8.423-9.212a86254 86254 0 0 1 67.369-17.157c21.128-5.369 42.27-10.688 63.374-16.148 1.289-.333 3.475.327 3.764-2.066h10.736c-.07.117-.207.333-.2.338 6.814 4.657 6.108 11.695 6.009 18.61-.089 6.272.065 12.548.111 18.822-14.864.048-29.727.128-44.59.137-33.997.021-67.994.106-101.99-.089-5.843-.033-10.179 1.602-13.006 6.765"/><path fill="#E8BF16" d="M19.246 368.513c7.539.039 15.079.159 22.616.067 2.298-.028 3.11.595 3.051 2.983-.152 6.176-.195 12.364.014 18.536.096 2.842-.687 3.719-3.613 3.717-7.354-.004-14.725-.556-22.068.299z"/><path fill="#000101" d="M777.393 518.82c.078-2.195 1.04-3.683 3.304-4.13-.006 2.255.782 5.142-3.304 4.13"/><path fill="#EAC118" d="m94.728 393.405 24.396-.139.84.658-.042 24.239-.814.718q-12.115-.075-24.229-.147a.38.38 0 0 0-.322-.32q-.02-12.399-.042-24.794z"/><path fill="#F9FCFD" d="M144.698 468.491c.029 7.377-.045 14.756.142 22.129.067 2.646-.991 3.191-3.357 3.169-7.1-.067-14.202.059-21.304.106l-.782-.171.093.18-.188-25.409-.106.003.789-.123 24.754.153z"/><path fill="#0F5EA5" d="m119.964 393.924-.84-.658.334-24.885c7.133.065 14.269.261 21.397.134 3.083-.055 4.087.989 3.986 4.039a278 278 0 0 0-.004 17.698c.091 2.974-1.122 3.78-3.878 3.729-6.997-.13-13.997-.052-20.995-.057m-.857 24.957.814-.718q12.43.067 24.862.132c-.181 8.414-.375 16.829.104 25.241l-.122.145-25.308.124q-.173-12.464-.35-24.924"/><path fill="#F9FCFD" d="M256.018 443.67c-3.316-.468-8.533 1.827-11.123-.866-2.385-2.482-.565-7.604-.696-11.561-.108-3.293.041-6.593-.041-9.887-.05-2 .529-3.049 2.773-3.02 6.728.087 13.458.059 20.186.017 1.75-.012 2.409.686 2.394 2.445-.062 6.865-.071 13.733.005 20.598.021 1.87-.792 2.334-2.473 2.297-3.43-.077-6.865-.023-11.025-.023"/><path fill="#0F5EA5" d="M169.426 418.263c.042-7.129.174-14.26.077-21.387-.037-2.698.951-3.617 3.598-3.562 6.031.128 12.067.107 18.1.009 2.53-.041 3.837.741 3.797 3.49a638 638 0 0 0 0 18.512c.039 2.711-1.188 3.561-3.756 3.533-7.129-.073-14.259.019-21.39.046a1.25 1.25 0 0 1-.426-.641"/><path fill="#F9FCFD" d="M181.285 368.725c-3.295-.265-8.478 1.677-10.873-.687-2.592-2.557-.807-7.798-.801-11.854.006-4.048-1.83-9.456.833-11.767 2.305-1.999 7.563-.667 11.517-.668 4.102-.001 9.543-1.401 11.953.664 2.789 2.391.863 8 .878 12.198.015 3.91 1.758 8.957-.872 11.436-2.409 2.271-7.346.475-11.162.676-.274.015-.549.002-1.473.002m-11.859 49.538q.111.389.426.642-.144 12.275-.291 24.549l-24.674.083c-.479-8.412-.285-16.827-.104-25.241zm25.009 37.065c.274-3.288-1.667-8.399.69-10.91 2.574-2.741 7.795-.682 11.852-.936 2.466-.153 4.949-.03 7.424-.027 5.23.005 5.233.007 5.235 5.438.002 5.501-.099 11.004.04 16.502.064 2.519-.82 3.36-3.331 3.304-6.185-.142-12.379-.174-18.563.01-2.849.085-3.536-1.069-3.388-3.639.174-3.015.041-6.049.041-9.742"/><path fill="#0F5BA5" d="m144.888 443.536 24.674-.083c.033 7.014-.035 14.03.147 21.039.078 2.976-.841 4.195-3.971 4.11-7.009-.19-14.026-.092-21.041-.111l.042.037.027-24.848z"/><path fill="#0F5EA5" d="M119.495 328.107c-.293-.942-.053-1.788.464-2.584.268.936.196 1.813-.464 2.584"/><path fill="#18A4B0" d="M119.757 507.633c-.439-.618-.502-1.28-.226-1.979.474.614.513 1.279.226 1.979m-.36-13.908.782.171q-.323.471-.648.939zm-24.669-100.32-.213.214c-7.273.04-14.548.026-21.819.153-2.192.038-3.196-.487-3.136-2.959.157-6.447.118-12.903.017-19.354-.033-2.106.606-2.904 2.797-2.865 6.45.113 12.904.116 19.354-.003 2.263-.042 3.207.603 3.159 2.994-.145 7.272-.119 14.546-.159 21.82m-.171 25.008a.385.385 0 0 1 .322.32c-.009 7.148-.094 14.298.015 21.445.038 2.519-.474 3.673-3.387 3.571-7.276-.255-14.564-.146-21.847-.185l.065.065c-.038-7.421.017-14.843-.164-22.261-.06-2.475.942-2.99 3.137-2.965 7.286.085 14.573.019 21.859.01"/><path fill="#EDC317" d="M82.416 318.815c3.165 0 6.333.089 9.492-.032 2.02-.078 3.004.396 2.961 2.699-.124 6.602-.095 13.208-.013 19.812.024 1.951-.632 2.649-2.613 2.623-6.74-.091-13.484-.11-20.224.009-2.144.038-2.452-.901-2.431-2.708.076-6.604.13-13.21-.023-19.811-.055-2.378.993-2.687 2.944-2.621 3.3.11 6.604.029 9.907.029"/><path fill="#18A4B0" d="m119.302 468.495.188 25.409c-7.125-.078-14.252-.289-21.374-.17-2.93.05-3.743-.948-3.656-3.774.189-6.166.144-12.343.016-18.513-.047-2.305.661-3.109 3.022-3.063 7.266.148 14.536.09 21.804.111"/><path fill="#24BEDB" d="m144.767 443.681-.027 24.848-24.754-.152-.533-.822.006-23.749q12.654-.064 25.308-.125"/><path fill="#F1C617" d="M69.66 443.565c.034 7.415 0 14.831.143 22.244.041 2.136-.576 2.859-2.772 2.815-6.59-.13-13.185-.106-19.776-.01-1.967.028-2.609-.611-2.58-2.579.098-6.591.12-13.187-.01-19.776-.043-2.195.679-2.813 2.815-2.772 7.413.144 14.829.109 22.244.144z"/><path fill="#0F5EA5" d="m119.453 467.554.533.822-.789.122z"/></g></svg>