<svg xmlns="http://www.w3.org/2000/svg" viewBox="0 0 104 32" fill="currentColor" role="img" aria-label="Kodo">
  <g transform="translate(0 0)">
    <path d="M 14.444 17.282 C 20.329 14.056 24.302 6.714 24.657 0.847 C 24.656 0.347 24.311 0.004 23.811 0.004 L 19.049 0.004 C 18.593 0.004 18.267 0.289 18.212 0.717 L 18.203 0.838 L 18.203 0.849 L 18.203 0.848 C 17.725 6.697 12.454 14.216 6.353 15.088 L 6.353 7.838 L 6.353 0.849 C 6.353 0.348 6.009 0.004 5.508 0.004 L 0.846 0.004 C 0.345 0.004 0 0.348 0 0.849 L 0 7.838 L 0 24.166 L 0 31.154 C 0 31.655 0.345 32 0.846 32 L 5.508 32 C 6.009 32 6.353 31.655 6.353 31.154 L 6.353 24.166 L 6.353 17.19 L 18.649 32 L 26.374 32 L 26.374 31.36 Z"/>
  </g>
  <g transform="translate(25 7)">
    <path d="M 16.793 8.555 C 15.602 7.364 14.177 6.773 12.493 6.773 C 10.808 6.773 9.384 7.364 8.193 8.555 C 7.001 9.746 6.419 11.171 6.419 12.855 C 6.419 14.539 7.001 15.963 8.193 17.155 C 9.384 18.346 10.808 18.936 12.493 18.936 C 14.177 18.936 15.602 18.346 16.793 17.155 C 17.984 15.964 18.575 14.539 18.575 12.855 C 18.575 11.17 17.984 9.745 16.793 8.555 Z M 12.493 0.71 C 15.839 0.71 18.715 1.901 21.079 4.269 C 23.444 6.638 24.638 9.506 24.638 12.855 C 24.638 16.203 23.444 19.072 21.079 21.44 C 18.715 23.808 15.839 25 12.493 25 C 9.144 25 6.274 23.808 3.907 21.441 C 1.539 19.073 0.355 16.203 0.355 12.855 C 0.355 9.507 1.539 6.637 3.907 4.269 C 6.274 1.901 9.144 0.71 12.493 0.71 Z"/>
  </g>
  <g transform="translate(52 0)">
    <path d="M 17.033 15.555 C 15.842 14.364 14.418 13.773 12.733 13.773 C 11.049 13.773 9.624 14.363 8.433 15.555 C 7.242 16.746 6.659 18.171 6.659 19.855 C 6.659 21.539 7.241 22.963 8.433 24.155 C 9.624 25.346 11.049 25.936 12.733 25.936 C 14.418 25.936 15.842 25.346 17.033 24.155 C 18.225 22.964 18.815 21.539 18.815 19.855 C 18.815 18.17 18.225 16.745 17.033 15.555 Z M 18.331 9.246 L 18.331 0.845 C 18.331 0.35 18.671 0 19.169 0 L 23.549 0 C 24.05 0 24.395 0.345 24.395 0.845 L 24.395 30.611 C 24.395 31.114 24.055 31.464 23.549 31.464 L 22.379 31.464 C 21.039 31.464 19.941 30.944 19.167 29.887 C 17.284 31.328 15.116 32 12.733 32 C 9.385 32 6.515 30.808 4.147 28.441 C 1.779 26.073 0.596 23.203 0.596 19.855 C 0.596 16.507 1.779 13.636 4.147 11.269 C 6.515 8.901 9.385 7.71 12.733 7.71 C 14.748 7.71 16.633 8.194 18.331 9.246 Z"/>
  </g>
  <g transform="translate(79 7)">
    <path d="M 16.795 8.555 C 15.604 7.364 14.18 6.773 12.495 6.773 C 10.811 6.773 9.386 7.364 8.195 8.555 C 7.003 9.746 6.421 11.171 6.421 12.855 C 6.421 14.539 7.003 15.963 8.195 17.155 C 9.386 18.346 10.81 18.936 12.495 18.936 C 14.18 18.936 15.604 18.346 16.795 17.155 C 17.987 15.964 18.577 14.539 18.577 12.855 C 18.577 11.17 17.987 9.745 16.795 8.555 Z M 12.495 0.71 C 15.841 0.71 18.717 1.901 21.081 4.269 C 23.447 6.638 24.64 9.506 24.64 12.855 C 24.64 16.203 23.446 19.071 21.081 21.44 C 18.717 23.808 15.841 25 12.495 25 C 9.146 25 6.277 23.808 3.909 21.441 C 1.541 19.073 0.357 16.203 0.357 12.855 C 0.357 9.507 1.541 6.637 3.909 4.269 C 6.276 1.901 9.147 0.71 12.495 0.71 Z"/>
  </g>
</svg>
