<svg width="93" height="28" viewBox="0 0 93 28" fill="none" xmlns="http://www.w3.org/2000/svg">
<path d="M9.36777 0C4.194 0 0 4.17859 0 9.33333H9.36777V28C14.5415 28 18.7355 23.8214 18.7355 18.6667V9.33333V0H9.36777Z" fill="#5034A4"/>
<path d="M21.0771 0V9.33333H21.1327C24.982 9.33333 28.1033 6.22351 28.1033 2.38831V0H21.0771Z" fill="#F15181"/>
<path d="M45.4888 2H41.0219V7.71827H38V11.1699H41.0219V18.1643C41.0219 19.2271 41.0331 20.1775 41.0553 21.0157C41.0775 21.8539 41.3074 22.6787 41.745 23.4891C42.227 24.355 42.93 24.982 43.8551 25.3711C44.7802 25.7602 45.8309 25.968 47.0081 25.9958C48.1842 26.0225 49.3859 25.9213 50.612 25.6912V21.9773C49.5614 22.1195 48.6029 22.164 47.7389 22.1084C46.8737 22.054 46.2451 21.7138 45.8509 21.0891C45.6432 20.76 45.531 20.3198 45.5143 19.7662C45.4977 19.2126 45.4899 18.5912 45.4899 17.9009V11.1699H50.6131V7.71827H45.4899V2H45.4888Z" fill="#5034A4"/>
<path d="M65.0287 16.7264C65.0287 17.8224 64.9054 18.7073 64.6589 19.3809C64.4123 20.0546 64.098 20.5648 63.7149 20.9095C63.3317 21.2552 62.9208 21.4875 62.4832 21.6076C62.0456 21.7287 61.6347 21.7888 61.2515 21.7888C60.2986 21.7888 59.5623 21.5753 59.0426 21.1473C58.5228 20.7205 58.1474 20.1891 57.9175 19.5533C57.6876 18.9174 57.551 18.2849 57.5066 17.6546C57.4633 17.0243 57.4411 16.5074 57.4411 16.1016V7.71875H52.9087V17.679C52.9087 17.9747 52.9309 18.4461 52.9742 19.093C53.0175 19.74 53.1441 20.4548 53.3518 21.2374C53.5595 22.0211 53.9071 22.7737 54.3947 23.4973C54.8811 24.221 55.563 24.818 56.4393 25.2893C57.3145 25.7606 58.4484 25.9963 59.8389 25.9963C61.5792 25.9963 63.0218 25.6184 64.1658 24.8624C64.7033 24.5078 65.1753 24.0999 65.5862 23.6407V25.9963H69.5266V7.71875H65.0276V16.7264H65.0287Z" fill="#5034A4"/>
<path d="M76.2925 2H71.8257V25.9958H76.2925V2Z" fill="#5034A4"/>
<path d="M87.393 7.67715C86.8566 7.71605 86.3368 7.80832 85.8326 7.95617C85.3284 8.10402 84.8641 8.30967 84.4365 8.57202C83.8779 8.90106 83.407 9.31681 83.0239 9.8215C82.8417 10.0605 82.6785 10.3117 82.5307 10.5752V7.71828H78.5903V25.9947H83.0894V16.3957C83.0894 15.7165 83.1827 15.1051 83.3681 14.5637C83.5547 14.0213 83.8279 13.5499 84.1889 13.1497C84.5498 12.7496 84.993 12.4294 85.5194 12.1882C86.0447 11.9358 86.6333 11.7858 87.2841 11.7357C87.9349 11.6868 88.508 11.7391 89 11.8925V7.71828C88.4647 7.65269 87.9283 7.63935 87.393 7.67715Z" fill="#5034A4"/>
</svg>
