<svg role="img" viewBox="0 0 24 24" xmlns="http://www.w3.org/2000/svg"><title>Amplitude</title><path fill="currentColor" d="M12 2c5.523 0 10 4.477 10 10s-4.477 10-10 10S2 17.523 2 12 6.477 2 12 2zm-1.05 5.25c-2.17.18-3.88 1.95-3.88 4.16 0 2.3 1.86 4.17 4.16 4.17 1.55 0 2.9-.85 3.62-2.11.36-.63 1.17-.85 1.8-.49.63.36.85 1.17.49 1.8a6.08 6.08 0 0 1-5.41 3.3c-3.36 0-6.08-2.72-6.08-6.08 0-3.17 2.43-5.78 5.53-6.07.72-.07 1.35.47 1.42 1.19.07.72-.47 1.35-1.19 1.42-.12.01-.23.02-.34.04l-.12.01z"/></svg>
