<svg role="img" viewBox="0 0 24 24" xmlns="http://www.w3.org/2000/svg"><title>Behance</title><path fill="currentColor" d="M6.938 4.503c.702 0 1.34.06 1.92.188.577.13 1.07.334 1.485.613.414.278.733.638.96 1.08.225.44.338.955.338 1.542 0 .47-.088.892-.262 1.268a2.834 2.834 0 0 1-.738.962c-.315.262-.687.47-1.113.625-.427.152-.892.25-1.393.288v.075c.683.04 1.277.232 1.777.575.502.344.896.797 1.183 1.357.286.562.43 1.193.43 1.892 0 .657-.127 1.242-.38 1.755a3.814 3.814 0 0 1-1.045 1.308 4.68 4.68 0 0 1-1.585.783 7.633 7.633 0 0 1-1.938.245H0V4.503h6.938zm-.337 5.733c.527 0 .977-.093 1.352-.28.375-.185.66-.445.855-.777.195-.332.292-.715.292-1.148 0-.613-.21-1.083-.63-1.407-.42-.325-.98-.487-1.68-.487H4.69v4.1h1.91zm.142 6.025c.657 0 1.188-.108 1.595-.325.405-.217.705-.513.9-.888.193-.375.29-.803.29-1.282 0-.545-.198-.98-.595-1.305-.397-.325-.953-.487-1.668-.487H4.69v4.287h2.053zm9.083-8.758h5.32v1.253h-5.32V7.503zm.185 9.78c.615-.93.922-2.095.922-3.495 0-1.45-.317-2.637-.952-3.565-.635-.928-1.597-1.392-2.885-1.392-1.265 0-2.212.464-2.84 1.392-.63.928-.945 2.115-.945 3.565 0 1.4.308 2.565.922 3.495.615.93 1.545 1.395 2.788 1.395 1.288 0 2.255-.465 2.89-1.395zM17.258 11.5c.372-.615.558-1.365.558-2.25 0-.885-.186-1.635-.558-2.25-.372-.615-.91-.922-1.613-.922-.703 0-1.24.307-1.613.922-.372.615-.558 1.365-.558 2.25 0 .885.186 1.635.558 2.25.373.615.91.922 1.613.922.703 0 1.24-.307 1.613-.922z"/></svg>
