<svg role="img" viewBox="0 0 24 24" xmlns="http://www.w3.org/2000/svg"><title>Visual Studio Code</title><path fill="currentColor" d="M23.15 2.587L18.21.21a1.494 1.494 0 0 0-1.705.29l-9.46 8.63 2.913 2.914 8.12-7.816a.5.5 0 0 1 .683.012l.063.062a.5.5 0 0 1-.012.683l-7.927 7.927 2.474 2.474 7.793-9.38a1.5 1.5 0 0 0-.29-1.705zm-3.46 13.861l-2.913-2.913-7.516 7.516a.5.5 0 0 1-.683.012l-.062-.063a.5.5 0 0 1 .012-.683l7.316-7.317-2.474-2.474-8.63 9.46a1.494 1.494 0 0 0 .29 1.705l4.94 2.377a1.5 1.5 0 0 0 1.705-.29l8.017-8.017z"/></svg>
