<svg role="img" viewBox="0 0 24 24" xmlns="http://www.w3.org/2000/svg"><title>JavaScript</title><path fill="currentColor" d="M0 0h24v24H0V0zm22.034 18.276c-.175-1.095-.888-2.015-3.003-2.873-.736-.345-1.554-.585-1.797-1.014-.047-.095-.069-1.365-.069-1.365H13.857v.639h3.072c0 .704.029 1.936-.331 2.819-.371.88-1.002 1.441-1.797 1.787-.736.331-1.554.497-2.405.497-1.002 0-1.936-.166-2.805-.497-.88-.345-1.502-.907-1.881-1.787-.331-.88-.497-1.846-.497-2.872 0-1.002.166-1.968.497-2.848.379-.88 1.002-1.441 1.881-1.787.869-.331 1.803-.497 2.805-.497.795 0 1.551.124 2.268.372.716.248 1.316.614 1.799 1.097.483.483.849 1.083 1.097 1.799.124.372.207.769.248 1.19h-3.069c-.041-.372-.124-.716-.248-1.033-.248-.716-.614-1.273-1.097-1.684-.483-.411-1.083-.614-1.799-.614-.716 0-1.316.203-1.799.614-.483.411-.849.968-1.097 1.684-.124.317-.207.661-.207 1.033 0 .372.083.716.207 1.033.248.716.614 1.273 1.097 1.684.483.411 1.083.614 1.799.614.716 0 1.316-.203 1.799-.614.331-.289.58-.662.745-1.119h-3.897v-2.485h6.609c.041 1.002-.083 1.968-.372 2.848z"/></svg>
