<svg preserveAspectRatio="none" width="100%" height="100%" overflow="visible" style="display: block;" viewBox="0 0 320 320" fill="none" xmlns="http://www.w3.org/2000/svg">
<path id="shape" fill-rule="evenodd" clip-rule="evenodd" d="M273.125 46.8625C261.251 34.988 234.194 40.8596 201.547 59.6812C191.771 23.2855 176.79 0 159.996 0C143.203 0 128.223 23.284 118.447 59.6779C85.8015 40.8581 58.7462 34.9874 46.8722 46.8614C34.997 58.7366 40.8701 85.7963 59.6944 118.446C23.2911 128.222 0 143.204 0 160C0 176.793 23.2829 191.773 59.6752 201.549C40.8495 234.2 34.9756 261.261 46.8513 273.137C58.7274 285.013 85.7904 279.138 118.444 260.31C128.22 296.711 143.201 320 159.996 320C176.792 320 191.774 296.709 201.55 260.307C234.205 279.136 261.27 285.012 273.146 273.136C285.022 261.26 279.148 234.2 260.323 201.549C296.716 191.773 320 176.793 320 160C320 143.204 296.708 128.222 260.304 118.446C279.128 85.7966 285.001 58.7376 273.125 46.8625Z" fill="var(--fill-0, #6750A4)"/>
</svg>
